<svg width="100" height="100" viewBox="0 0 100 100" fill="none" xmlns="http://www.w3.org/2000/svg">
  <rect width="100" height="100" rx="20" fill="black"/>
  <path d="M50 22C59.9411 22 68 30.0589 68 40C68 45.9238 65.2398 51.1654 60.8995 54.4127C64.8928 58.0379 67.5 63.239 67.5 69C67.5 74.761 67.5 78 67.5 78H57.5C57.5 78 57.5 74.761 57.5 69C57.5 63.3725 52.9394 58.8175 47.3176 58.8175C41.6959 58.8175 37.1353 63.3725 37.1353 69C37.1353 74.761 37.1353 78 37.1353 78H27.1353C27.1353 78 27.1353 74.761 27.1353 69C27.1353 63.239 29.7425 58.0379 33.7358 54.4127C29.3955 51.1654 26.6353 45.9238 26.6353 40C26.6353 30.0589 34.6943 22 44.6353 22H50Z" fill="white"/>
  <path d="M41.1353 40C41.1353 38.3431 42.4785 37 44.1353 37H50.5C52.1569 37 53.5 38.3431 53.5 40V40C53.5 41.6569 52.1569 43 50.5 43H44.1353C42.4785 43 41.1353 41.6569 41.1353 40V40Z" fill="black"/>
</svg>
